<?xml version="1.0" encoding="UTF-8"?>
<svg id="Artwork" xmlns="http://www.w3.org/2000/svg" xmlns:xlink="http://www.w3.org/1999/xlink" version="1.1" viewBox="0 0 410 370">
  <!-- Generator: Adobe Illustrator 30.2.1, SVG Export Plug-In . SVG Version: 2.1.1 Build 1)  -->
  <defs>
    <style>
      .st0, .st1, .st2, .st3, .st4 {
        fill: none;
      }

      .st1 {
        stroke: #b4f0f3;
      }

      .st1, .st2, .st3, .st4 {
        stroke-miterlimit: 10;
        stroke-width: 24px;
      }

      .st5 {
        fill: #333231;
      }

      .st2 {
        stroke: #30d6df;
      }

      .st3 {
        stroke: #8ce8ed;
      }

      .st4 {
        stroke: #5cdee5;
      }

      .st6 {
        clip-path: url(#clippath);
      }
    </style>
    <clipPath id="clippath">
      <rect class="st0" width="410" height="370"/>
    </clipPath>
  </defs>
  <g class="st6">
    <g>
      <path class="st2" d="M166.2-3.8c0-44.7-10.1-76.3-30.3-94.7-20.2-18.4-53.4-27.6-99.6-27.6H3.8c-46.2,0-79.4,9.2-99.6,27.6-20.2,18.4-30.3,50-30.3,94.7s0,2.5,0,3.8c0,1.3,0,2.5,0,3.8,0,44.7,10.1,76.3,30.3,94.7,20.2,18.4,53.4,27.6,99.6,27.6h32.5c46.2,0,79.4-9.2,99.6-27.6,20.2-18.4,30.3-50,30.3-94.7,0-1.3,0-2.5,0-3.8,0-1.3,0-2.5,0-3.8Z"/>
      <path class="st4" d="M231.5-5.8c0-69-14.6-117.7-43.9-146-29.3-28.4-77.3-42.6-144.1-42.6H-3.5c-66.8,0-114.9,14.2-144.1,42.6-29.2,28.4-43.9,77.1-43.9,146s0,3.9,0,5.8c0,2,0,3.9,0,5.8,0,69,14.6,117.6,43.9,146,29.3,28.4,77.3,42.6,144.1,42.6h47c66.8,0,114.9-14.2,144.1-42.6,29.2-28.4,43.9-77.1,43.9-146s0-3.9,0-5.8c0-2,0-3.9,0-5.8h0Z"/>
      <path class="st3" d="M298.4-7.7c0-90.9-19.3-155.1-57.8-192.5-38.5-37.4-101.8-56.1-189.7-56.1H-10.9c-88,0-151.2,18.7-189.7,56.1-38.5,37.4-57.8,101.6-57.8,192.5s0,5.1.1,7.7c0,2.6-.1,5.1-.1,7.7,0,90.9,19.3,155.1,57.8,192.5,38.5,37.4,101.8,56.1,189.7,56.1h61.9c88,0,151.2-18.7,189.7-56.1,38.5-37.4,57.8-101.6,57.8-192.5,0-2.6,0-5.1-.1-7.7,0-2.6.1-5.1.1-7.7h0Z"/>
      <path class="st1" d="M363.7-9.7c0-114.9-23.8-196-71.3-243.3-47.6-47.3-125.6-70.9-234.2-70.9H-18.2c-108.6,0-186.7,23.6-234.3,70.9-47.5,47.3-71.3,128.4-71.3,243.3s.1,6.5.1,9.7c0,3.2-.1,6.4-.1,9.7,0,114.9,23.8,196,71.3,243.3,47.6,47.3,125.7,70.9,234.2,70.9H58.2c108.6,0,186.7-23.6,234.3-70.9,47.5-47.3,71.3-128.4,71.3-243.3s0-6.5-.1-9.7c0-3.2.1-6.4.1-9.7h0Z"/>
    </g>
  </g>
  <g>
    <path class="st5" d="M36,58.8h2.1c.2,0,.4,0,.5-.2s.2-.4.2-.8v-18.2c0-.4,0-.6-.2-.8,0-.1-.3-.2-.5-.2h-2.1v-2.5h12c3,0,5.2.5,6.6,1.7,1.4,1.1,2.1,2.8,2.1,5.2s-.7,3.8-2.2,4.9c-1.5,1.1-3.8,1.6-7,1.6l-.7-.8c2.1,0,3.8.3,5,.8,1.3.6,2.2,1.4,2.9,2.5.6,1.1,1,2.5,1.1,4.1,0,.7.2,1.3.3,1.7s.3.7.6.8c.3.2.7.2,1.2.2h.8v2.5h-3.5c-1,0-1.8-.2-2.5-.7s-1.1-1.1-1.4-2-.5-1.9-.6-3.1c0-1.2-.3-2.2-.5-3s-.8-1.4-1.4-1.8c-.6-.4-1.5-.6-2.7-.6h-4.3v-2.2h4.3c2,0,3.4-.4,4.3-1.1s1.3-2,1.3-3.7-.4-2.8-1.2-3.5-2.1-1-3.9-1h-3.8v19.2c0,.4,0,.7.1.8s.3.2.5.2h2.1v2.5h-9.9s0-2.5,0-2.5Z"/>
    <path class="st5" d="M61,58.8h2.1c.2,0,.4,0,.5-.2s.2-.4.2-.8v-18.2c0-.4,0-.7-.2-.8,0-.1-.3-.2-.5-.2h-2.1v-2.5h10.1v2.5h-2.2c-.2,0-.4,0-.5.2,0,.1-.1.4-.1.8v19.2h8.1c.5,0,.9,0,1.1,0,.3,0,.5-.2.6-.3.1-.2.2-.4.3-.7l.6-4h2.9v7.6h-20.8v-2.5h0Z"/>
    <path class="st5" d="M83.8,58.7h2.1c.2,0,.4,0,.5-.2,0-.1.2-.4.2-.8v-18.2c0-.4,0-.7-.2-.8s-.3-.2-.5-.2h-2.1v-2.5h20.8v6h-2.8l-.4-2.4c0-.3-.2-.6-.3-.7s-.3-.2-.6-.3-.6,0-1.1,0h-8.3v9.4h5.8c.4,0,.7,0,.8-.2.2-.2.2-.4.2-.8v-1.6h2.5v7.8h-2.5v-1.6c0-.4,0-.7-.2-.9-.2-.2-.4-.3-.8-.3h-5.8v7.4c0,.4,0,.7.1.8s.3.2.5.2h2.2v2.5h-10.1v-2.5h0Z"/>
  </g>
</svg>