<?xml version="1.0" encoding="UTF-8"?>
<svg id="Artwork" xmlns="http://www.w3.org/2000/svg" viewBox="0 0 73.91 139.54">
  <defs>
    <style>
      .cls-1 {
        fill: #333231;
      }
    </style>
  </defs>
  <path class="cls-1" d="M25.51,48.27h2.09c.25,0,.43-.07.53-.21.1-.14.15-.41.15-.82v-18.2c0-.38-.05-.64-.15-.78-.1-.14-.28-.21-.53-.21h-2.09v-2.51h12.05c2.99,0,5.19.55,6.61,1.65,1.42,1.1,2.13,2.83,2.13,5.19,0,2.18-.73,3.81-2.19,4.88-1.46,1.08-3.78,1.62-6.97,1.62l-.65-.8c2.08,0,3.76.28,5.04.84,1.28.56,2.24,1.38,2.87,2.47.63,1.09,1.01,2.47,1.14,4.14.05.74.15,1.3.29,1.69.14.39.35.67.63.82.28.15.67.23,1.18.23h.84v2.51h-3.5c-1.01,0-1.83-.23-2.45-.7-.62-.47-1.09-1.13-1.41-1.98-.32-.85-.53-1.88-.63-3.1-.08-1.24-.26-2.25-.55-3.02-.29-.77-.75-1.36-1.39-1.77-.63-.41-1.53-.61-2.7-.61h-4.29v-2.24h4.33c1.95,0,3.37-.37,4.26-1.12s1.33-1.97,1.33-3.67-.4-2.78-1.2-3.48-2.08-1.04-3.86-1.04h-3.76v19.19c0,.41.04.68.13.82.09.14.26.21.51.21h2.09v2.51h-9.88v-2.51Z"/>
  <path class="cls-1" d="M25.51,79.92h2.09c.25,0,.43-.07.53-.21.1-.14.15-.41.15-.82v-18.2c0-.41-.05-.67-.15-.8-.1-.13-.28-.19-.53-.19h-2.09v-2.51h10.11v2.51h-2.24c-.25,0-.42.06-.51.19-.09.13-.13.39-.13.8v19.23h8.05c.48,0,.86-.02,1.14-.08.28-.05.49-.15.63-.3.14-.15.23-.38.28-.68l.61-4.03h2.89v7.6h-20.82v-2.51Z"/>
  <path class="cls-1" d="M25.51,111.54h2.09c.25,0,.43-.06.53-.19.1-.13.15-.39.15-.8v-18.24c0-.4-.05-.67-.15-.8-.1-.13-.28-.19-.53-.19h-2.09v-2.51h20.82v6h-2.85l-.38-2.43c-.08-.33-.18-.57-.32-.72-.14-.15-.33-.25-.57-.29s-.61-.06-1.12-.06h-8.35v9.39h5.81c.38,0,.65-.08.8-.23.15-.15.23-.43.23-.84v-1.56h2.51v7.79h-2.51v-1.56c0-.4-.08-.7-.23-.87-.15-.18-.42-.27-.8-.27h-5.81v7.37c0,.41.04.67.13.8.09.13.26.19.51.19h2.24v2.51h-10.11v-2.51Z"/>
</svg>