<?xml version="1.0" encoding="UTF-8"?>
<svg id="Artwork" xmlns="http://www.w3.org/2000/svg" viewBox="0 0 244.36 152.2">
  <defs>
    <style>
      .cls-1 {
        fill: #fff;
      }
    </style>
  </defs>
  <path class="cls-1" d="M26.48,48.27h2.09c.25,0,.43-.07.53-.21.1-.14.15-.41.15-.82v-18.2c0-.38-.05-.64-.15-.78-.1-.14-.28-.21-.53-.21h-2.09v-2.51h12.05c2.99,0,5.19.55,6.61,1.65,1.42,1.1,2.13,2.83,2.13,5.19,0,2.18-.73,3.81-2.19,4.88-1.46,1.08-3.78,1.62-6.97,1.62l-.65-.8c2.08,0,3.76.28,5.04.84s2.24,1.38,2.87,2.47c.63,1.09,1.01,2.47,1.14,4.14.05.74.15,1.3.29,1.69s.35.67.63.82c.28.15.67.23,1.18.23h.84v2.51h-3.5c-1.01,0-1.83-.23-2.45-.7-.62-.47-1.09-1.13-1.41-1.98s-.53-1.88-.63-3.1c-.08-1.24-.26-2.25-.55-3.02-.29-.77-.75-1.36-1.39-1.77-.63-.41-1.53-.61-2.7-.61h-4.29v-2.24h4.33c1.95,0,3.37-.37,4.26-1.12.89-.75,1.33-1.97,1.33-3.67s-.4-2.78-1.2-3.48c-.8-.7-2.08-1.04-3.86-1.04h-3.76v19.19c0,.41.04.68.13.82.09.14.26.21.51.21h2.09v2.51h-9.88v-2.51Z"/>
  <path class="cls-1" d="M52.15,49.88c-1.03-.92-1.54-2.08-1.54-3.48s.39-2.45,1.18-3.32,1.92-1.58,3.42-2.13c1.49-.54,3.39-1.01,5.7-1.39.68-.13,1.49-.25,2.43-.38l.11,2.05c-.33.05-.57.08-.72.1-.15.01-.38.04-.68.09-2.46.33-4.27.81-5.43,1.44-1.17.63-1.75,1.57-1.75,2.81,0,.84.28,1.51.84,2.03.56.52,1.29.78,2.2.78,1.04,0,1.94-.24,2.7-.72.76-.48,1.35-1.15,1.79-2.01.43-.86.65-1.85.65-2.96v-4.6c0-1.34-.34-2.32-1.01-2.93-.67-.61-1.74-.91-3.21-.91-.94,0-1.72.1-2.36.29-.63.19-1.12.47-1.46.84-.34.37-.55.82-.63,1.35v.34l-.57-2.74c.84-.02,1.5.2,2,.68s.74,1.13.74,1.94c0,.74-.25,1.32-.74,1.77-.49.44-1.12.67-1.88.67-.86,0-1.54-.24-2.05-.72-.51-.48-.76-1.15-.76-2.01,0-1.11.37-2.04,1.12-2.77.75-.73,1.76-1.28,3.04-1.63,1.28-.35,2.7-.53,4.27-.53,1.85,0,3.35.22,4.5.65,1.15.43,2.01,1.11,2.57,2.03.56.93.84,2.15.84,3.67v9.2c0,.33.04.56.11.7.08.14.23.21.46.21h1.82v2.51h-5.78c-.23-.46-.42-.95-.57-1.48-.15-.53-.28-1.18-.38-1.94-.33.76-.84,1.43-1.52,2.01-.68.58-1.5,1.04-2.43,1.39-.94.34-1.91.51-2.93.51-1.7,0-3.06-.46-4.08-1.39Z"/>
  <path class="cls-1" d="M74.55,50.64c-.79-.37-1.37-.94-1.75-1.73s-.57-1.84-.57-3.15v-10.94h-2.62v-2.24l1.63-.19c.61-.05,1.08-.21,1.41-.48.33-.27.52-.69.57-1.27l.38-3.34h3.04v5.02h3.88v2.51h-3.99v10.87c0,1.01.19,1.74.57,2.17.38.43,1.01.65,1.9.65.61,0,1.18-.1,1.71-.3l.11-.04v2.58c-.43.13-.91.23-1.42.32-.52.09-1.07.13-1.65.13-1.34,0-2.41-.18-3.19-.55Z"/>
  <path class="cls-1" d="M85.91,50.09c-1.5-.79-2.63-1.91-3.4-3.36-.77-1.46-1.16-3.2-1.16-5.22s.41-3.69,1.22-5.15c.81-1.46,1.97-2.58,3.48-3.36,1.51-.78,3.27-1.18,5.3-1.18,1.7,0,3.18.26,4.45.78s2.24,1.26,2.93,2.22c.68.96,1.03,2.08,1.03,3.34,0,1.09-.31,1.96-.93,2.62-.62.66-1.4.99-2.34.99-.79,0-1.42-.23-1.92-.7-.49-.47-.74-1.06-.74-1.77,0-.81.28-1.46.84-1.96.56-.49,1.3-.73,2.24-.7l-.49,1.37c-.08-.79-.3-1.45-.67-2s-.89-.96-1.58-1.24c-.68-.28-1.54-.42-2.58-.42-1.22,0-2.25.27-3.12.8-.86.53-1.52,1.3-1.98,2.3s-.68,2.22-.68,3.67v.49c0,1.47.21,2.72.65,3.76s1.06,1.83,1.88,2.38,1.86.82,3.1.82c1.44,0,2.62-.33,3.51-.99.9-.66,1.58-1.66,2.03-3l2.55,1.1c-.58,1.75-1.55,3.12-2.89,4.1-1.34.99-3.13,1.48-5.36,1.48-2.08,0-3.86-.39-5.36-1.18Z"/>
  <path class="cls-1" d="M100.62,48.27h1.94c.18,0,.32-.06.42-.17.1-.11.15-.36.15-.74v-18.24c0-.4-.04-.68-.13-.84-.09-.15-.24-.23-.44-.23h-2.01v-2.51h2.62c1.62,0,3.08-.11,4.37-.34v22.15c0,.38.04.63.13.74.09.11.23.17.44.17h1.79v2.51h-9.27v-2.51Z"/>
  <path class="cls-1" d="M111.07,48.27h1.94c.2,0,.35-.06.44-.19.09-.13.13-.37.13-.72v-11.02c0-.58-.06-.98-.17-1.2-.11-.21-.34-.32-.67-.32h-1.67v-2.51h2.58c1.6,0,3.04-.11,4.33-.34v15.39c0,.36.04.6.11.72.08.13.23.19.46.19h1.86v2.51h-9.35v-2.51ZM113.71,29.31c-.52-.53-.78-1.18-.78-1.94,0-.81.26-1.47.78-1.99.52-.52,1.2-.78,2.03-.78s1.48.27,2.01.8.8,1.19.8,1.98-.27,1.41-.82,1.94-1.21.8-2,.8c-.84,0-1.51-.27-2.03-.8Z"/>
  <path class="cls-1" d="M121.44,32.31h20.86v2.51h-20.86v-2.51ZM121.59,48.27h1.82c.2,0,.35-.06.46-.17.1-.11.15-.36.15-.74v-16.72c0-1.39.2-2.51.59-3.36.39-.85.99-1.47,1.8-1.86.81-.39,1.86-.59,3.15-.59.63,0,1.25.07,1.84.21.59.14,1.07.3,1.42.48v2.43c-.2-.13-.47-.22-.8-.29-.33-.06-.65-.09-.95-.09-.71,0-1.27.11-1.67.32s-.7.59-.87,1.12c-.18.53-.27,1.27-.27,2.2l.04,3.38v12.77c0,.38.05.63.15.74s.25.17.46.17h2.05v2.51h-9.39v-2.51ZM132.04,48.27h1.79c.2,0,.35-.06.44-.17s.13-.36.13-.74v-16.72c0-1.39.19-2.51.57-3.36.38-.85.97-1.47,1.77-1.86.8-.39,1.84-.59,3.13-.59.63,0,1.22.07,1.77.21.54.14.99.3,1.35.48v2.43c-.2-.13-.47-.22-.8-.29-.33-.06-.65-.09-.95-.09-.71,0-1.25.11-1.63.32-.38.21-.65.58-.8,1.1-.15.52-.21,1.26-.19,2.22l.08,3.38v12.77c0,.38.05.63.15.74s.25.17.46.17h2.17v2.51h-9.42v-2.51Z"/>
  <path class="cls-1" d="M147.07,50.03c-1.48-.82-2.6-1.97-3.36-3.44-.76-1.47-1.14-3.15-1.14-5.05s.4-3.58,1.2-5.05c.8-1.47,1.92-2.62,3.36-3.44,1.44-.82,3.09-1.24,4.94-1.24s3.48.39,4.81,1.16c1.33.77,2.34,1.88,3.04,3.33.7,1.44,1.04,3.14,1.04,5.09v.95h-14.97v-2.28h12.43l-1.86.49v-.27c0-1.34-.17-2.45-.49-3.31-.33-.86-.82-1.51-1.48-1.94-.66-.43-1.5-.65-2.51-.65-1.09,0-2.01.25-2.75.74s-1.32,1.23-1.73,2.2c-.41.98-.61,2.18-.61,3.63l.08.49v.61c0,1.29.22,2.43.67,3.42.44.99,1.09,1.75,1.94,2.3s1.89.82,3.14.82c1.39,0,2.53-.34,3.42-1.03.89-.68,1.54-1.66,1.98-2.93l2.55,1.06c-.51,1.7-1.45,3.05-2.83,4.05-1.38,1-3.2,1.5-5.45,1.5-2.1,0-3.9-.41-5.38-1.24Z"/>
  <path class="cls-1" d="M26.48,86.27h2.09c.25,0,.43-.07.53-.21.1-.14.15-.41.15-.82v-18.2c0-.4-.05-.67-.15-.8-.1-.13-.28-.19-.53-.19h-2.09v-2.51h10.11v2.51h-2.24c-.25,0-.42.06-.51.19-.09.13-.13.39-.13.8v19.23h6.04c.48,0,.86-.03,1.14-.08.28-.05.49-.15.63-.3.14-.15.23-.38.28-.68l.61-4.03h2.89v7.6h-18.81v-2.51Z"/>
  <path class="cls-1" d="M51.5,88.03c-1.48-.82-2.6-1.97-3.36-3.44-.76-1.47-1.14-3.15-1.14-5.05s.4-3.58,1.2-5.05c.8-1.47,1.92-2.62,3.36-3.44,1.44-.82,3.09-1.24,4.94-1.24s3.48.39,4.81,1.16,2.34,1.88,3.04,3.33c.7,1.44,1.04,3.14,1.04,5.09v.95h-14.97v-2.28h12.43l-1.86.49v-.27c0-1.34-.17-2.44-.49-3.31s-.82-1.51-1.48-1.94c-.66-.43-1.5-.65-2.51-.65-1.09,0-2.01.25-2.75.74s-1.32,1.23-1.73,2.2c-.41.98-.61,2.18-.61,3.63l.08.49v.61c0,1.29.22,2.43.67,3.42.44.99,1.09,1.75,1.94,2.3.85.55,1.89.82,3.14.82,1.39,0,2.53-.34,3.42-1.03.89-.68,1.54-1.66,1.98-2.93l2.55,1.06c-.51,1.7-1.45,3.05-2.83,4.05s-3.2,1.5-5.45,1.5c-2.1,0-3.9-.41-5.38-1.24Z"/>
  <path class="cls-1" d="M70.23,96.19c-1.43-.28-2.48-.7-3.15-1.27-.67-.57-1.01-1.3-1.01-2.18,0-1.27.73-2.23,2.18-2.89,1.46-.66,3.54-1.08,6.25-1.25l.11.53c-1.62.1-2.88.45-3.76,1.04-.89.6-1.33,1.34-1.33,2.22,0,.53.23.97.7,1.31s1.17.59,2.09.76c.92.17,2.13.25,3.63.25,1.57,0,2.9-.11,3.99-.34,1.09-.23,1.92-.58,2.49-1.04.57-.47.86-1.04.86-1.73,0-.56-.12-.99-.36-1.31-.24-.32-.63-.54-1.16-.67-.53-.13-1.25-.19-2.17-.19h-7.18l-.34-.34c-1.62-.08-2.87-.44-3.74-1.08-.87-.65-1.31-1.54-1.31-2.68s.46-1.99,1.39-2.7c.92-.71,2.2-1.13,3.82-1.25l.91.87c-.35,0-.65.03-.87.08-.66.08-1.14.25-1.44.51-.3.27-.46.62-.46,1.04,0,.53.2.91.59,1.14.39.23,1.06.34,2,.34,1.54-.03,2.93-.04,4.14-.04,1.24-.03,2.47-.04,3.69-.04,2,0,3.48.44,4.43,1.33s1.42,2.12,1.42,3.69c0,1.37-.42,2.52-1.25,3.46s-2.07,1.65-3.69,2.13c-1.62.48-3.58.72-5.89.72s-4.14-.14-5.57-.42ZM71.41,82.2c-1.25-.51-2.22-1.25-2.91-2.22-.68-.97-1.03-2.13-1.03-3.48s.37-2.48,1.12-3.48,1.77-1.79,3.08-2.36c1.3-.57,2.77-.85,4.39-.85s3.03.28,4.31.84c1.28.56,2.28,1.34,3,2.34.72,1,1.08,2.16,1.08,3.48,0,2.03-.78,3.62-2.34,4.77-1.56,1.15-3.65,1.73-6.29,1.73-1.7,0-3.17-.25-4.43-.76ZM78.92,79.75c.71-.72,1.06-1.74,1.06-3.06v-.42c0-1.39-.34-2.45-1.01-3.17-.67-.72-1.67-1.08-2.98-1.08-.86,0-1.6.17-2.22.49s-1.09.81-1.41,1.44c-.32.63-.48,1.41-.48,2.32v.42c0,1.32.35,2.34,1.04,3.06.7.72,1.68,1.08,2.95,1.08s2.33-.36,3.04-1.08ZM82.93,68.88c.62-.85,1.48-1.27,2.57-1.27.71,0,1.29.21,1.75.63s.68.96.68,1.62c0,.61-.19,1.12-.57,1.54s-.86.63-1.44.63-1.06-.2-1.43-.59-.55-.92-.55-1.58c0-.25.08-.48.23-.68.15-.2.35-.32.61-.34l-.19,1.52c-.46.15-.86.54-1.2,1.18-.34.63-.54,1.3-.59,2.01l-1.03-1.1c.15-1.52.54-2.7,1.16-3.55Z"/>
  <path class="cls-1" d="M89.27,87.88c-1.03-.92-1.54-2.08-1.54-3.48s.39-2.45,1.18-3.33,1.92-1.58,3.42-2.13c1.49-.54,3.39-1.01,5.7-1.39.68-.13,1.49-.25,2.43-.38l.11,2.05c-.33.05-.57.08-.72.09-.15.01-.38.04-.68.1-2.46.33-4.27.81-5.43,1.44-1.17.63-1.75,1.57-1.75,2.81,0,.84.28,1.51.84,2.03.56.52,1.29.78,2.2.78,1.04,0,1.94-.24,2.7-.72.76-.48,1.35-1.15,1.79-2.01.43-.86.65-1.85.65-2.96v-4.6c0-1.34-.34-2.32-1.01-2.93-.67-.61-1.74-.91-3.21-.91-.94,0-1.72.09-2.36.29-.63.19-1.12.47-1.46.84s-.55.82-.63,1.35v.34l-.57-2.74c.84-.03,1.5.2,2,.68.49.48.74,1.13.74,1.94,0,.73-.25,1.32-.74,1.77-.49.44-1.12.67-1.88.67-.86,0-1.54-.24-2.05-.72s-.76-1.15-.76-2.01c0-1.11.37-2.04,1.12-2.77.75-.73,1.76-1.28,3.04-1.63,1.28-.35,2.7-.53,4.27-.53,1.85,0,3.35.22,4.5.65,1.15.43,2.01,1.11,2.57,2.03.56.92.84,2.15.84,3.67v9.2c0,.33.04.56.11.7.08.14.23.21.46.21h1.82v2.51h-5.78c-.23-.46-.42-.95-.57-1.48-.15-.53-.28-1.18-.38-1.94-.33.76-.84,1.43-1.52,2.01-.68.58-1.5,1.04-2.43,1.39-.94.34-1.91.51-2.93.51-1.7,0-3.06-.46-4.08-1.39Z"/>
  <path class="cls-1" d="M112.47,88.09c-1.5-.79-2.63-1.91-3.4-3.36-.77-1.46-1.16-3.2-1.16-5.23s.41-3.69,1.22-5.15,1.97-2.58,3.48-3.36c1.51-.79,3.27-1.18,5.3-1.18,1.7,0,3.18.26,4.45.78s2.24,1.26,2.93,2.22c.68.96,1.03,2.08,1.03,3.34,0,1.09-.31,1.96-.93,2.62-.62.66-1.4.99-2.34.99-.79,0-1.42-.23-1.92-.7s-.74-1.06-.74-1.77c0-.81.28-1.46.84-1.96.56-.49,1.3-.73,2.24-.7l-.49,1.37c-.08-.79-.3-1.45-.67-2s-.89-.96-1.58-1.24c-.68-.28-1.54-.42-2.58-.42-1.22,0-2.25.27-3.12.8s-1.52,1.3-1.98,2.3c-.46,1-.68,2.22-.68,3.67v.49c0,1.47.21,2.72.65,3.76.43,1.04,1.06,1.83,1.88,2.38.82.55,1.86.82,3.1.82,1.44,0,2.62-.33,3.51-.99.9-.66,1.58-1.66,2.03-3l2.55,1.1c-.58,1.75-1.55,3.12-2.89,4.1-1.34.99-3.13,1.48-5.36,1.48-2.08,0-3.86-.39-5.36-1.18Z"/>
  <path class="cls-1" d="M128.01,94.76c-.86-.67-1.29-1.58-1.29-2.72,0-.91.25-1.64.76-2.18s1.19-.82,2.05-.82c.71,0,1.28.2,1.71.59.43.39.65.91.65,1.54,0,.35-.09.72-.27,1.1s-.43.73-.76,1.06l-1.22-.11.15-.57c.2.18.44.31.7.4.27.09.56.13.89.13.66,0,1.24-.15,1.75-.44.51-.29.97-.75,1.39-1.37.42-.62.84-1.42,1.27-2.41l.23-.57v-.15l-6.76-14.52c-.15-.38-.29-.63-.42-.74-.13-.11-.3-.17-.53-.17h-1.41v-2.51h9.16v2.51h-1.56c-.3,0-.51.09-.63.29-.11.19-.11.44.02.74l4.6,9.96,4.1-9.92c.13-.35.13-.62,0-.8-.13-.18-.36-.27-.68-.27h-1.67v-2.51h7.71v2.51h-1.6c-.28,0-.48.06-.61.17-.13.11-.28.36-.46.74l-6.31,15.01c-.71,1.7-1.39,3.05-2.05,4.05-.66,1-1.44,1.75-2.34,2.24-.9.49-1.98.74-3.25.74-1.37,0-2.48-.34-3.34-1.01Z"/>
  <path class="cls-1" d="M26.48,124.27h2.09c.25,0,.43-.06.53-.19.1-.13.15-.39.15-.8v-18.24c0-.4-.05-.67-.15-.8-.1-.13-.28-.19-.53-.19h-2.09v-2.51h19.65v6h-2.85l-.38-2.43c-.08-.33-.18-.57-.32-.72-.14-.15-.33-.25-.57-.29-.24-.04-.61-.06-1.12-.06h-7.18v9.39h4.64c.38,0,.65-.08.8-.23s.23-.43.23-.84v-1.56h2.51v7.79h-2.51v-1.56c0-.41-.08-.7-.23-.87-.15-.18-.42-.27-.8-.27h-4.64v7.37c0,.41.04.67.13.8.09.13.26.19.51.19h2.24v2.51h-10.11v-2.51Z"/>
  <path class="cls-1" d="M49.43,126.05c-1.47-.81-2.6-1.96-3.4-3.44-.8-1.48-1.2-3.19-1.2-5.11s.41-3.55,1.24-5.03c.82-1.48,1.97-2.63,3.44-3.44,1.47-.81,3.17-1.22,5.09-1.22s3.57.41,5.02,1.22c1.44.81,2.56,1.95,3.36,3.42.8,1.47,1.2,3.15,1.2,5.05s-.41,3.62-1.22,5.09c-.81,1.47-1.95,2.62-3.42,3.44-1.47.82-3.15,1.24-5.05,1.24s-3.58-.41-5.05-1.22ZM57.41,123.83c.79-.52,1.37-1.29,1.77-2.3.39-1.01.59-2.27.59-3.76v-.46c0-1.52-.2-2.79-.59-3.8s-.98-1.77-1.75-2.28-1.73-.76-2.87-.76-2.17.26-2.94.78c-.77.52-1.36,1.28-1.75,2.28-.39,1-.59,2.26-.59,3.78v.46c0,1.5.19,2.75.57,3.78.38,1.03.96,1.79,1.75,2.3s1.76.76,2.93.76,2.1-.26,2.89-.78Z"/>
  <path class="cls-1" d="M68.81,125.65c-1.01-1.08-1.52-2.73-1.52-4.96v-8.97c0-.38-.04-.63-.13-.74-.09-.11-.23-.17-.44-.17h-1.94v-2.51h6.92v12.27c0,1.37.28,2.34.84,2.93.56.58,1.38.87,2.47.87.94,0,1.74-.25,2.39-.74.66-.49,1.16-1.2,1.52-2.13.35-.92.53-2.02.53-3.29v-6.5c0-.38-.05-.63-.15-.74-.1-.11-.25-.17-.46-.17h-2.05v-2.51h7.03v14.9c0,.41.04.68.13.84.09.15.25.23.47.23h2.01v2.51h-2.66c-1.6,0-3.04.11-4.33.34v-6.35l1.06-2.93c0,2-.29,3.71-.85,5.11-.57,1.41-1.4,2.48-2.49,3.21-1.09.74-2.39,1.1-3.91,1.1-1.95,0-3.43-.54-4.45-1.62Z"/>
  <path class="cls-1" d="M87.73,124.27h1.94c.2,0,.35-.06.44-.17.09-.11.13-.36.13-.74v-11.48c0-.43-.04-.71-.11-.85-.08-.14-.23-.21-.46-.21h-1.94v-2.51h2.55c1.65,0,3.08-.11,4.29-.34v6.16l-1.03,3.8c0-2.2.29-4.06.87-5.57.58-1.51,1.43-2.64,2.55-3.4,1.11-.76,2.44-1.14,3.99-1.14,1.98,0,3.46.57,4.45,1.71.99,1.14,1.48,2.83,1.48,5.05v8.78c0,.38.05.63.15.74.1.11.25.17.46.17h1.9v2.51h-9.2v-2.51h1.71c.23,0,.39-.06.48-.17.09-.11.13-.36.13-.74v-8.66c0-1.37-.27-2.37-.8-3-.53-.63-1.37-.95-2.51-.95-.94,0-1.75.26-2.43.78-.68.52-1.21,1.29-1.58,2.3-.37,1.01-.55,2.27-.55,3.76v5.78c0,.38.04.63.13.74.09.11.25.17.48.17h1.75v2.51h-9.27v-2.51Z"/>
  <path class="cls-1" d="M114.03,126.05c-1.27-.81-2.24-1.95-2.93-3.42-.68-1.47-1.03-3.18-1.03-5.13s.35-3.62,1.04-5.07c.7-1.46,1.68-2.59,2.95-3.4,1.27-.81,2.72-1.22,4.37-1.22s2.95.35,4.05,1.04c1.1.7,1.93,1.7,2.49,3,.56,1.3.84,2.88.84,4.73l.15,1.98c0,1.75-.29,3.27-.86,4.58s-1.41,2.32-2.53,3.04c-1.11.72-2.48,1.08-4.1,1.08s-3.18-.41-4.45-1.22ZM122.48,123.66c.77-.51,1.37-1.26,1.8-2.26s.65-2.2.65-3.59v-.53c0-1.39-.22-2.59-.65-3.59s-1.03-1.75-1.8-2.26c-.77-.51-1.67-.76-2.68-.76-1.6,0-2.86.58-3.78,1.73-.92,1.15-1.39,2.78-1.39,4.88v.53c0,2.1.46,3.73,1.39,4.88.92,1.15,2.18,1.73,3.78,1.73,1.01,0,1.91-.25,2.68-.76ZM125.22,124.02c-.06-1.13-.11-2.2-.13-3.21l.3-3.84-.46-3.65v-8.21c0-.43-.04-.71-.13-.85-.09-.14-.25-.21-.48-.21h-1.98v-2.51h2.66c1.65,0,3.08-.11,4.29-.34v22.15c0,.38.05.63.15.74.1.11.25.17.46.17h1.86v2.51h-6.35c-.08-.71-.15-1.63-.21-2.75Z"/>
  <path class="cls-1" d="M134.76,125.88c-1.03-.92-1.54-2.08-1.54-3.48s.39-2.45,1.18-3.33c.78-.87,1.92-1.58,3.42-2.13,1.49-.54,3.39-1.01,5.7-1.39.68-.13,1.5-.25,2.43-.38l.11,2.05c-.33.05-.57.08-.72.09-.15.01-.38.04-.68.1-2.46.33-4.27.81-5.43,1.44-1.17.63-1.75,1.57-1.75,2.81,0,.84.28,1.51.84,2.03.56.52,1.29.78,2.2.78,1.04,0,1.94-.24,2.7-.72s1.36-1.15,1.79-2.01.65-1.85.65-2.96v-4.6c0-1.34-.34-2.32-1.01-2.93-.67-.61-1.74-.91-3.21-.91-.94,0-1.72.09-2.36.29-.63.19-1.12.47-1.46.84-.34.37-.55.82-.63,1.35v.34l-.57-2.74c.84-.03,1.5.2,2,.68.49.48.74,1.13.74,1.94,0,.73-.25,1.32-.74,1.77-.49.44-1.12.67-1.88.67-.86,0-1.55-.24-2.05-.72s-.76-1.15-.76-2.01c0-1.11.37-2.04,1.12-2.77.75-.73,1.76-1.28,3.04-1.63s2.7-.53,4.28-.53c1.85,0,3.35.22,4.5.65,1.15.43,2.01,1.11,2.56,2.03.56.92.84,2.15.84,3.67v9.2c0,.33.04.56.11.7.08.14.23.21.46.21h1.82v2.51h-5.78c-.23-.46-.42-.95-.57-1.48-.15-.53-.28-1.18-.38-1.94-.33.76-.84,1.43-1.52,2.01-.68.58-1.5,1.04-2.43,1.39-.94.34-1.91.51-2.93.51-1.7,0-3.06-.46-4.08-1.39Z"/>
  <path class="cls-1" d="M157.31,126.64c-.79-.37-1.37-.94-1.75-1.73-.38-.78-.57-1.84-.57-3.15v-10.94h-2.62v-2.24l1.63-.19c.61-.05,1.08-.21,1.41-.48.33-.27.52-.69.57-1.27l.38-3.34h3.04v5.02h3.88v2.51h-3.99v10.87c0,1.01.19,1.74.57,2.17s1.01.65,1.9.65c.61,0,1.18-.1,1.71-.3l.11-.04v2.58c-.43.13-.91.23-1.42.32-.52.09-1.07.13-1.65.13-1.34,0-2.41-.18-3.19-.55Z"/>
  <path class="cls-1" d="M165.29,124.27h1.94c.2,0,.35-.06.44-.19.09-.13.13-.37.13-.72v-11.02c0-.58-.06-.98-.17-1.2-.11-.21-.34-.32-.67-.32h-1.67v-2.51h2.58c1.6,0,3.04-.11,4.33-.34v15.39c0,.36.04.6.11.72.08.13.23.19.46.19h1.86v2.51h-9.35v-2.51ZM167.93,105.31c-.52-.53-.78-1.18-.78-1.94,0-.81.26-1.48.78-2s1.2-.78,2.03-.78,1.48.27,2.01.8.8,1.19.8,1.98-.27,1.41-.82,1.94c-.54.53-1.21.8-2,.8-.84,0-1.51-.27-2.03-.8Z"/>
  <path class="cls-1" d="M180.3,126.05c-1.47-.81-2.6-1.96-3.4-3.44-.8-1.48-1.2-3.19-1.2-5.11s.41-3.55,1.24-5.03c.82-1.48,1.97-2.63,3.44-3.44,1.47-.81,3.17-1.22,5.09-1.22s3.57.41,5.02,1.22c1.44.81,2.57,1.95,3.36,3.42.8,1.47,1.2,3.15,1.2,5.05s-.41,3.62-1.22,5.09c-.81,1.47-1.95,2.62-3.42,3.44-1.47.82-3.15,1.24-5.05,1.24s-3.58-.41-5.05-1.22ZM188.28,123.83c.79-.52,1.37-1.29,1.77-2.3.39-1.01.59-2.27.59-3.76v-.46c0-1.52-.2-2.79-.59-3.8-.39-1.01-.98-1.77-1.75-2.28-.77-.51-1.73-.76-2.87-.76s-2.17.26-2.95.78c-.77.52-1.36,1.28-1.75,2.28-.39,1-.59,2.26-.59,3.78v.46c0,1.5.19,2.75.57,3.78.38,1.03.96,1.79,1.75,2.3.79.51,1.76.76,2.93.76s2.1-.26,2.89-.78Z"/>
  <path class="cls-1" d="M196.07,124.27h1.94c.2,0,.35-.06.44-.17.09-.11.13-.36.13-.74v-11.48c0-.43-.04-.71-.11-.85-.08-.14-.23-.21-.46-.21h-1.94v-2.51h2.55c1.65,0,3.08-.11,4.29-.34v6.16l-1.03,3.8c0-2.2.29-4.06.87-5.57.58-1.51,1.43-2.64,2.55-3.4,1.11-.76,2.44-1.14,3.99-1.14,1.98,0,3.46.57,4.45,1.71.99,1.14,1.48,2.83,1.48,5.05v8.78c0,.38.05.63.15.74.1.11.25.17.46.17h1.9v2.51h-9.2v-2.51h1.71c.23,0,.39-.06.48-.17.09-.11.13-.36.13-.74v-8.66c0-1.37-.27-2.37-.8-3-.53-.63-1.37-.95-2.51-.95-.94,0-1.75.26-2.43.78-.68.52-1.21,1.29-1.58,2.3-.37,1.01-.55,2.27-.55,3.76v5.78c0,.38.04.63.13.74.09.11.25.17.48.17h1.75v2.51h-9.27v-2.51Z"/>
</svg>