<?xml version="1.0" encoding="UTF-8"?>
<svg id="Layer_1" data-name="Layer 1" xmlns="http://www.w3.org/2000/svg" viewBox="0 0 800 800">
  <defs>
    <style>
      .cls-1 {
        fill: none;
        stroke: #ad4628;
        stroke-miterlimit: 10;
        stroke-width: 24px;
      }
    </style>
  </defs>
  <path class="cls-1" d="M473.38,397.34c0-26.62-6.02-45.41-18.04-56.36-12.03-10.95-31.79-16.43-59.26-16.43h-9.66s0,0,0,0,0,0,0,0h-9.66c-27.47,0-47.23,5.48-59.26,16.43-12.02,10.95-18.04,29.74-18.04,56.36,0,.76.03,1.5.04,2.25-.01.75-.04,1.49-.04,2.26,0,26.62,6.02,45.41,18.04,56.36,12.03,10.95,31.79,16.43,59.26,16.43h19.32c27.47,0,47.23-5.48,59.26-16.43,12.02-10.95,18.04-29.74,18.04-56.36,0-.76-.03-1.5-.04-2.25.01-.75.04-1.49.04-2.25Z"/>
  <path class="cls-1" d="M553.89,394.98c0-54.61-11.59-93.16-34.74-115.62-23.17-22.46-61.22-33.7-114.13-33.7h-18.6s0,0,0,0,0,0,0,0h-18.6c-52.91,0-90.96,11.24-114.13,33.7-23.14,22.47-34.74,61.01-34.74,115.62,0,1.57.05,3.08.07,4.62-.02,1.55-.07,3.06-.07,4.63,0,54.61,11.59,93.16,34.74,115.62,23.17,22.46,61.22,33.7,114.13,33.7h37.21c52.91,0,90.96-11.24,114.13-33.7,23.14-22.47,34.74-61.01,34.74-115.62,0-1.57-.05-3.08-.07-4.62.02-1.54.07-3.05.07-4.62Z"/>
  <path class="cls-1" d="M638.4,392.63c0-82.28-17.45-140.36-52.27-174.2-34.86-33.85-92.11-50.78-171.72-50.78h-27.98s0,0-.01,0,0,0-.01,0h-27.98c-79.61,0-136.87,16.93-171.72,50.78-34.82,33.85-52.27,91.93-52.27,174.2,0,2.36.07,4.63.1,6.96-.03,2.33-.1,4.6-.1,6.97,0,82.28,17.45,140.36,52.27,174.2,34.86,33.85,92.11,50.78,171.72,50.78h55.99c79.61,0,136.87-16.93,171.72-50.78,34.82-33.85,52.27-91.93,52.27-174.2,0-2.36-.07-4.64-.1-6.96.03-2.33.1-4.6.1-6.96Z"/>
  <path class="cls-1" d="M720.96,390.13c0-111.84-23.16-190.78-69.39-236.79-46.28-46.01-122.29-69.02-227.99-69.02h-37.15s-.01,0-.02,0-.01,0-.02,0h-37.15c-105.7,0-181.71,23.02-227.99,69.02-46.23,46.01-69.39,124.96-69.39,236.79,0,3.21.1,6.3.14,9.46-.04,3.17-.14,6.26-.14,9.47,0,111.84,23.16,190.78,69.39,236.79,46.28,46.01,122.29,69.02,227.99,69.02h74.33c105.7,0,181.71-23.02,227.99-69.02,46.23-46.01,69.39-124.96,69.39-236.79,0-3.21-.1-6.3-.14-9.47.04-3.16.14-6.25.14-9.47Z"/>
</svg>