<?xml version="1.0" encoding="UTF-8"?>
<svg id="Artwork" xmlns="http://www.w3.org/2000/svg" xmlns:xlink="http://www.w3.org/1999/xlink" viewBox="0 0 410 370">
  <defs>
    <style>
      .cls-1, .cls-2, .cls-3, .cls-4, .cls-5 {
        fill: none;
      }

      .cls-2 {
        stroke: #db8067;
      }

      .cls-2, .cls-3, .cls-4, .cls-5 {
        stroke-miterlimit: 10;
        stroke-width: 24px;
      }

      .cls-6 {
        fill: #333231;
      }

      .cls-3 {
        stroke: #d15d3b;
      }

      .cls-4 {
        stroke: #edc1b5;
      }

      .cls-7 {
        clip-path: url(#clippath);
      }

      .cls-5 {
        stroke: #e49f8c;
      }
    </style>
    <clipPath id="clippath">
      <rect class="cls-1" width="410" height="370"/>
    </clipPath>
  </defs>
  <g class="cls-7">
    <path class="cls-3" d="M166.17-3.79c0-44.74-10.12-76.33-30.32-94.74-20.22-18.41-53.43-27.62-99.61-27.62h-16.23s0,0,0,0,0,0,0,0H3.76c-46.18,0-79.39,9.21-99.61,27.62-20.2,18.41-30.32,49.99-30.32,94.74,0,1.28.04,2.52.06,3.78-.02,1.27-.06,2.5-.06,3.79,0,44.74,10.12,76.33,30.32,94.74,20.22,18.41,53.43,27.62,99.61,27.62h32.48c46.18,0,79.39-9.21,99.61-27.62,20.2-18.41,30.32-49.99,30.32-94.74C166.17,2.5,166.12,1.27,166.11,0c.02-1.27.06-2.5.06-3.79Z"/>
    <path class="cls-2" d="M231.5-5.84c0-68.96-14.64-117.65-43.87-146.02-29.26-28.37-77.31-42.56-144.14-42.56h-23.48s0,0-.01,0,0,0-.01,0H-3.5c-66.82,0-114.88,14.19-144.14,42.56-29.23,28.37-43.87,77.05-43.87,146.02,0,1.98.06,3.88.09,5.83-.03,1.95-.09,3.86-.09,5.84,0,68.96,14.64,117.65,43.87,146.02,29.26,28.37,77.31,42.56,144.14,42.56h46.99c66.82,0,114.88-14.19,144.14-42.56,29.23-28.37,43.87-77.05,43.87-146.02C231.5,3.86,231.44,1.95,231.42,0c.03-1.95.09-3.86.09-5.84Z"/>
    <path class="cls-5" d="M298.4-7.69c0-90.9-19.27-155.07-57.75-192.47-38.51-37.39-101.77-56.1-189.72-56.1h-30.91s-.01,0-.02,0-.01,0-.02,0H-10.93c-87.96,0-151.21,18.71-189.72,56.1-38.47,37.4-57.75,101.56-57.75,192.47,0,2.61.08,5.12.11,7.69-.03,2.57-.11,5.09-.11,7.7,0,90.9,19.27,155.07,57.75,192.47,38.51,37.39,101.77,56.1,189.72,56.1h61.86c87.96,0,151.21-18.71,189.72-56.1,38.47-37.4,57.75-101.56,57.75-192.47C298.4,5.08,298.32,2.57,298.28,0c.03-2.57.11-5.08.11-7.69Z"/>
    <path class="cls-4" d="M363.74-9.73c0-114.91-23.8-196.03-71.3-243.3-47.55-47.27-125.65-70.92-234.25-70.92H20.02s-.01,0-.02,0-.01,0-.02,0H-18.19c-108.6,0-186.7,23.65-234.25,70.92-47.5,47.27-71.3,128.39-71.3,243.3,0,3.3.1,6.47.14,9.72-.04,3.25-.14,6.43-.14,9.73,0,114.91,23.8,196.03,71.3,243.3,47.55,47.27,125.65,70.92,234.25,70.92H58.19c108.6,0,186.7-23.65,234.25-70.92,47.5-47.27,71.3-128.39,71.3-243.3C363.74,6.42,363.64,3.25,363.6,0c.04-3.25.14-6.42.14-9.73Z"/>
  </g>
  <g>
    <path class="cls-6" d="M36,58.77h2.09c.25,0,.43-.07.53-.21.1-.14.15-.41.15-.82v-18.2c0-.38-.05-.64-.15-.78-.1-.14-.28-.21-.53-.21h-2.09v-2.51h12.05c2.99,0,5.19.55,6.61,1.65,1.42,1.1,2.13,2.83,2.13,5.19,0,2.18-.73,3.81-2.19,4.88-1.46,1.08-3.78,1.62-6.97,1.62l-.65-.8c2.08,0,3.76.28,5.04.84,1.28.56,2.24,1.38,2.87,2.47.63,1.09,1.01,2.47,1.14,4.14.05.74.15,1.3.29,1.69.14.39.35.67.63.82.28.15.67.23,1.18.23h.84v2.51h-3.5c-1.01,0-1.83-.23-2.45-.7-.62-.47-1.09-1.13-1.41-1.98-.32-.85-.53-1.88-.63-3.1-.08-1.24-.26-2.25-.55-3.02-.29-.77-.75-1.36-1.39-1.77-.63-.41-1.53-.61-2.7-.61h-4.29v-2.24h4.33c1.95,0,3.37-.37,4.26-1.12s1.33-1.97,1.33-3.67-.4-2.78-1.2-3.48-2.08-1.04-3.86-1.04h-3.76v19.19c0,.41.04.68.13.82.09.14.26.21.51.21h2.09v2.51h-9.88v-2.51Z"/>
    <path class="cls-6" d="M60.95,58.81h2.09c.25,0,.43-.07.53-.21.1-.14.15-.41.15-.82v-18.2c0-.41-.05-.67-.15-.8-.1-.13-.28-.19-.53-.19h-2.09v-2.51h10.11v2.51h-2.24c-.25,0-.42.06-.51.19-.09.13-.13.39-.13.8v19.23h8.05c.48,0,.86-.02,1.14-.08.28-.05.49-.15.63-.3.14-.15.23-.38.28-.68l.61-4.03h2.89v7.6h-20.82v-2.51Z"/>
    <path class="cls-6" d="M83.77,58.72h2.09c.25,0,.43-.06.53-.19.1-.13.15-.39.15-.8v-18.24c0-.4-.05-.67-.15-.8-.1-.13-.28-.19-.53-.19h-2.09v-2.51h20.82v6h-2.85l-.38-2.43c-.08-.33-.18-.57-.32-.72-.14-.15-.33-.25-.57-.29s-.61-.06-1.12-.06h-8.35v9.39h5.81c.38,0,.65-.08.8-.23.15-.15.23-.43.23-.84v-1.56h2.51v7.79h-2.51v-1.56c0-.4-.08-.7-.23-.87-.15-.18-.42-.27-.8-.27h-5.81v7.37c0,.41.04.67.13.8.09.13.26.19.51.19h2.24v2.51h-10.11v-2.51Z"/>
  </g>
</svg>