<?xml version="1.0" encoding="UTF-8"?>
<svg id="Artwork" xmlns="http://www.w3.org/2000/svg" viewBox="0 0 122.9 139.54">
  <defs>
    <style>
      .cls-1 {
        fill: #4c7a41;
      }
    </style>
  </defs>
  <path class="cls-1" d="M48.7,79.98c-3.72-3.38-10.1-5.1-18.96-5.1h-.27c-.36,0-.67.26-.74.61-.49,2.73-.84,5.44-.92,7.92-.01.42.33.77.75.77h1.92c5.09,0,8.73,1.06,11.12,3.24,2.42,2.2,3.64,5.83,3.64,10.78,0,3.18-.53,5.84-1.57,7.96-.19.39-.05.88.31,1.1,2.44,1.45,4.88,2.68,7.13,3.69.39.17.84,0,1-.4,1.39-3.39,2.1-7.66,2.1-12.76,0-8.49-1.86-14.49-5.52-17.83Z"/>
  <path class="cls-1" d="M56.55,60.64c-.68,0-.91.91-.3,1.23,2.15,1.13,4.05,2.45,5.69,3.94,6.83,6.22,10.29,16.85,10.29,31.57,0,4.63-.36,8.87-1.07,12.73-.1.52.43.93.91.71,2.66-1.21,5.59-2.72,8.44-4.54.34-.22.56-.58.59-.99.22-2.65.34-5.42.34-8.33,0-16.14-3.19-28.16-9.48-35.86-.25-.3-.62-.47-1.01-.47h-14.4Z"/>
  <path class="cls-1" d="M59.11,68.92c-5.36-4.88-14.07-7.59-25.91-8.1-.42-.02-.81.25-.93.66-.66,2.13-1.79,6.38-2.28,8.26-.12.47.23.93.71.94,9.46.13,16.47,2.21,20.84,6.19,4.57,4.17,6.89,11.21,6.89,20.94,0,5.64-.81,10.43-2.41,14.34-.16.39.04.84.44.98.2.07.39.14.58.21,1.4.5,2.91.75,4.41.75,1.23,0,2.84-.24,4-.6.43-.13.77-.48.88-.92,1.12-4.4,1.7-9.46,1.7-15.19,0-13.49-3-23.07-8.92-28.46Z"/>
  <path class="cls-1" d="M30.48,88.4h-1.4c-.48,0-.84.45-.73.92,1.48,6.01,5.72,10.86,10.69,14.64.4.3.98.14,1.16-.33.55-1.44.83-3.24.83-5.41,0-3.72-.76-6.3-2.27-7.67-1.56-1.42-4.35-2.14-8.29-2.14Z"/>
  <path class="cls-1" d="M78.26,60.64c-.59,0-.95.65-.63,1.14,5.32,8.39,8.02,20.17,8.02,35.19,0,1.41-.03,2.79-.09,4.14-.02.58.67.9,1.1.51,4.84-4.41,8.45-10,8.45-16.9v-.18c0-9.83-1.92-17.76-3.79-23.16-.16-.45-.58-.75-1.06-.75h-12Z"/>
  <path class="cls-1" d="M83.99,38.07h-18.16c-.52-5.08-2.87-10.09-7.1-12.39-1.54-.84-3.07.83-3.57,2.17-2.18,5.75,3.27,4.18,4.14,10.22h-20.38c-7.44,0-13.46,6.03-13.46,13.46v3.57c0,.83.67,1.5,1.5,1.5h69.01c.83,0,1.5-.67,1.5-1.5v-3.57c0-7.44-6.03-13.46-13.46-13.46Z"/>
</svg>